{
	"asset":{
		"version":"2.0",
		"generator":"Created using the official Cinema 4D glTF Exporter 1.000x284978"
	},
	"images":[{
		"uri":"data:image/jpeg;base64,"
	}],
	"scenes":[{
		"nodes":[0]
	}],
	"nodes":[{
		"name":"Volume_0",
		"translation":[0.0,
		0.0,
		0.0],
		"rotation":[0.0,
		-1.2246468525851679e-16,
		0.0,
		-1.0],
		"scale":[1.0,
		1.0,
		1.0],
		"mesh":0
	}],
	"materials":[{
		"pbrMetallicRoughness":{
			"baseColorTexture":{
				"index":0
			},
			"baseColorFactor":[0.82,
			0.82,
			0.82,
			1.0],
			"metallicFactor":0.0,
			"roughnessFactor":0.8678071905112638
		},
		"emissiveFactor":[0.0,
		0.0,
		0.0],
		"alphaMode":"OPAQUE",
		"doubleSided":true,
		"name":"Volume_0"
	}],
	"meshes":[{
		"name":"Volume_0",
		"primitives":[{
			"attributes":{
				"POSITION":1,
				"NORMAL":2,
				"TEXCOORD_0":3
			},
			"material":0,
			"indices":0
		}]
	}],
	"accessors":[{
		"bufferView":0,
		"type":"SCALAR",
		"count":166542,
		"componentType":5123,
		"min":[0],
		"byteOffset":0,
		"max":[37472]
	},
	{
		"bufferView":1,
		"type":"VEC3",
		"count":37473,
		"componentType":5126,
		"min":[-93.35130310058594,
		-99.41567993164063,
		-100.38063049316406],
		"byteOffset":0,
		"max":[93.35130310058594,
		99.41567993164063,
		100.38063049316406]
	},
	{
		"bufferView":1,
		"type":"VEC3",
		"count":37473,
		"componentType":5126,
		"min":[-0.999613344669342,
		-0.9999995231628418,
		-0.9998497366905212],
		"byteOffset":12,
		"max":[0.9999862313270569,
		0.9999024868011475,
		0.9999900460243225]
	},
	{
		"bufferView":1,
		"type":"VEC2",
		"count":37473,
		"componentType":5126,
		"min":[0.003921568859368563,
		0.0],
		"byteOffset":24,
		"max":[0.9960784316062927,
		0.0]
	}],
	"bufferViews":[{
		"buffer":0,
		"byteOffset":0,
		"byteLength":333084,
		"target":34963
	},
	{
		"buffer":0,
		"byteOffset":333084,
		"byteLength":1199136,
		"target":34962,
		"byteStride":32
	}],
	"buffers":[{
		"uri":"data:application/octet-stream;base64,",
		"byteLength":1532220
	}],
	"samplers":[{
		"magFilter":9729,
		"minFilter":9729,
		"wrapS":10497,
		"wrapT":10497
	}],
	"textures":[{
		"sampler":0,
		"source":0
	}]
}